# xmcd CD database file
#
# Track frame offsets:
#	150
#	9175
#	21172
#	33105
#	48175
#	59405
#	68885
#	79265
#	90215
#	101625
#	113145
#	124305
#	140242
#	150137
#	164600
#
# Disc length: 2381 seconds
#
# Revision: 0
# Processed by: cddbd v1.5.1PL0 Copyright (c) Steve Scherf et al.
# Submitted via: CDex 1.51
#
DISCID=b7094b0f
DTITLE=Rene' Paulo - Surftides
DYEAR=2002
DGENRE=General Jazz
TTITLE0=故郷
TTITLE1=われは海の子
TTITLE2=浜辺の歌
TTITLE3=夏は来ぬ
TTITLE4=真白き富士の嶺
TTITLE5=椰子の実
TTITLE6=浜千鳥
TTITLE7=蘇州夜曲
TTITLE8=別れの磯千鳥
TTITLE9=君といつまでも
TTITLE10=知床旅情
TTITLE11=上を向いてあるこう
TTITLE12=ここに幸あり
TTITLE13=涙くんさようなら
TTITLE14=見上げてごらん夜の星を
EXTD=YEAR: 2002
EXTT0=
EXTT1=
EXTT2=
EXTT3=
EXTT4=
EXTT5=
EXTT6=
EXTT7=
EXTT8=
EXTT9=
EXTT10=
EXTT11=
EXTT12=
EXTT13=
EXTT14=
PLAYORDER=
